PathFileType	4	(X/Y/Z)	TVC_32_BWA_07_walk_RCNL2025.trc
DataRate	CameraRate	NumFrames	NumMarkers	Units	OrigDataRate	OrigDataStartFrame	OrigNumFrames
100	100	12	27	mm	100	239	272
Frame#	Time	R_Shoulder			L_Shoulder			C7			J_Notch			R_Elbow			L_Elbow			R_Wrist			L_Wrist			R_Asis			L_Asis			R_Psis			L_Psis			Sacral			Thoracic			Sternum			R_Thigh_Lateral			R_Knee_Lateral			R_Shank_Lateral			R_Ankle_Lateral			R_Heel			R_Toe			L_Thigh_Lateral			L_Knee_Lateral			L_Shank_Lateral			L_Ankle_Lateral			L_Heel			L_Toe		
		X1	Y1	Z1	X2	Y2	Z2	X3	Y3	Z3	X4	Y4	Z4	X5	Y5	Z5	X6	Y6	Z6	X7	Y7	Z7	X8	Y8	Z8	X9	Y9	Z9	X10	Y10	Z10	X11	Y11	Z11	X12	Y12	Z12	X13	Y13	Z13	X14	Y14	Z14	X15	Y15	Z15	X16	Y16	Z16	X17	Y17	Z17	X18	Y18	Z18	X19	Y19	Z19	X20	Y20	Z20	X21	Y21	Z21	X22	Y22	Z22	X23	Y23	Z23	X24	Y24	Z24	X25	Y25	Z25	X26	Y26	Z26	X27	Y27	Z27
239	2.38000000	1046.560669	1450.573364	-281.434143	960.427917	1432.665527	-646.288086	958.916138	1500.871338	-453.775269	1112.730225	1395.918945	-475.765442	1200.505005	1150.887085	-157.953415	807.234253	1135.837280	-712.889038	1404.088623	972.340424	-210.214478	808.521881	860.980621	-687.140778	1051.896362	995.901428	-299.844330	1041.140381	1005.086304	-588.611938	856.557495	1005.926697	-387.082733	856.318787	1000.013489	-488.482849	856.438141	1002.970093	-437.782791	876.091003	1239.823120	-435.331360	1132.553589	1250.334961	-473.127716	917.721924	617.930725	-257.505615	925.759399	481.138458	-329.914368	837.606140	289.565033	-279.787903	775.721191	84.955910	-360.235626	710.432068	64.892334	-420.583282	911.683289	42.623035	-372.467621	1099.324951	679.638916	-674.605652	1201.024292	540.408142	-625.528259	1211.528076	380.905426	-693.197815	1312.866211	115.523880	-642.252014	1251.671265	82.053802	-593.196533	1455.446777	125.051643	-614.530762
240	2.39000000	1053.708496	1449.868408	-283.546783	967.923828	1431.001221	-648.039551	966.558411	1499.437622	-455.696564	1120.745117	1395.099731	-477.650360	1209.701294	1151.379639	-159.706451	813.865417	1134.448975	-713.036926	1414.136780	973.840851	-212.104630	815.218170	859.592255	-686.455231	1059.795776	994.618164	-300.425507	1052.171631	1003.232971	-589.450500	866.030701	1004.187500	-389.623138	866.556335	998.181580	-490.950165	866.293518	1001.184540	-440.286652	884.860352	1237.875244	-437.552155	1141.247070	1249.593872	-474.589539	923.778625	617.454956	-258.067108	931.796143	480.253662	-329.938324	841.063416	289.885071	-279.722137	776.331238	86.025978	-360.021240	710.817749	66.775810	-420.285217	911.701721	42.606995	-372.316528	1111.470093	678.111633	-674.817688	1210.334839	537.580627	-625.005615	1221.816406	378.536346	-693.183594	1319.529053	112.063568	-641.430603	1257.249023	78.839523	-593.563232	1461.609619	120.255905	-610.810974
241	2.40000000	1060.889893	1449.368164	-285.731262	975.621399	1429.422119	-649.885437	974.334778	1498.145386	-457.718658	1128.914795	1394.448608	-479.582489	1218.617188	1151.887573	-161.457291	821.031006	1132.976562	-713.372559	1423.687500	975.088318	-213.925575	822.500885	858.106506	-686.013824	1067.947998	993.404236	-301.146851	1063.374634	1001.475708	-590.362061	875.692810	1002.624939	-392.244537	876.963318	996.559326	-493.513611	876.328064	999.592133	-442.879074	893.834167	1236.029297	-439.851562	1150.122070	1249.026733	-476.085480	929.992981	617.173462	-258.672821	937.916321	479.480774	-329.981323	844.575378	290.401611	-279.613068	776.994690	87.279991	-359.740936	711.262329	68.927025	-419.888550	911.722473	42.575165	-372.109467	1123.526245	676.684387	-675.136047	1219.029419	534.518921	-624.656738	1230.941284	375.749023	-693.145203	1325.009277	108.222443	-640.635071	1261.661499	75.482735	-593.841309	1466.564453	114.619682	-607.290649
242	2.41000000	1068.128784	1449.088501	-287.982880	983.535645	1427.954956	-651.827942	982.254578	1497.019043	-459.840363	1137.244751	1393.984375	-481.560944	1227.251221	1152.409180	-163.197433	828.753052	1131.437988	-713.910400	1432.734558	976.074951	-215.672066	830.387146	856.545410	-685.823273	1076.423950	992.288086	-302.043884	1074.711792	999.851929	-591.369446	885.539185	1001.264526	-394.922363	887.523071	995.175476	-496.151978	886.531128	998.220001	-445.537170	903.013794	1234.316528	-442.222412	1159.177734	1248.651855	-477.620178	936.485168	617.073914	-259.298248	944.164490	478.825317	-330.050049	848.195007	291.120544	-279.464081	777.737366	88.741562	-359.371552	711.766785	71.365143	-419.363983	911.747864	42.529572	-371.845398	1135.300171	675.284058	-675.530212	1227.089478	531.276245	-624.451538	1238.882935	372.582458	-693.049072	1329.482056	104.130127	-639.868469	1265.114502	72.119942	-593.991882	1470.505127	108.252686	-604.110168
243	2.42000000	1075.450317	1449.042480	-290.297028	991.679993	1426.626953	-653.868896	990.326294	1496.081543	-462.059998	1145.739258	1393.723022	-483.584534	1235.604126	1152.942383	-164.921616	837.047424	1129.854004	-714.661072	1441.271545	976.792389	-217.340263	838.895111	854.934052	-685.889099	1085.273804	991.295044	-303.147247	1086.140991	998.402344	-592.494446	895.559326	1000.131042	-397.630157	898.216125	994.056030	-498.842743	896.887726	997.093536	-448.236450	912.396423	1232.769165	-444.656921	1168.410767	1248.484863	-479.198364	943.346863	617.110413	-259.928375	950.597595	478.290253	-330.145691	851.982727	292.039612	-279.275330	778.584717	90.435204	-358.889587	712.337585	74.113556	-418.685852	911.783386	42.474461	-371.527710	1146.602051	673.853394	-675.984924	1234.520142	527.926270	-624.360962	1245.690552	369.116791	-692.877563	1333.147827	99.937675	-639.136902	1267.830078	68.901436	-593.994080	1473.655762	101.294434	-601.390259
244	2.43000000	1082.879761	1449.240479	-292.669159	1000.065613	1425.465332	-656.009033	998.556946	1495.354004	-464.375031	1154.400391	1393.677979	-485.651520	1243.677734	1153.484619	-166.628021	845.924316	1128.246948	-715.632507	1449.292419	977.232117	-218.927681	848.043915	853.299744	-686.215485	1094.525635	990.448486	-304.480804	1097.616089	997.169922	-593.756470	905.737061	999.247437	-400.340576	909.019714	993.224182	-501.562531	907.378387	996.235809	-450.951553	921.975220	1231.419800	-447.146881	1177.814819	1248.538208	-480.824646	950.634399	617.226624	-260.562592	957.284180	477.876892	-330.262329	855.999817	293.152802	-279.043365	779.562683	92.387604	-358.274353	712.990295	77.201965	-417.836853	911.840454	42.417004	-371.164459	1157.260742	672.360901	-676.502625	1241.351929	524.561035	-624.360046	1251.478027	365.469879	-692.629700	1336.218384	95.808365	-638.449219	1270.031982	65.978333	-593.847107	1476.255371	93.917496	-599.218628
245	2.44000000	1090.441895	1449.689575	-295.094818	1008.700928	1424.495972	-658.248047	1006.951965	1494.854248	-466.782074	1163.228271	1393.859009	-487.759552	1251.475342	1154.032959	-168.318466	855.389404	1126.640991	-716.830444	1456.791443	977.385712	-220.433205	857.853180	851.671509	-686.805389	1104.186035	989.770691	-306.059753	1109.088257	996.198547	-595.171570	916.050903	998.634338	-403.026794	919.907166	992.699646	-504.287567	917.979034	995.666992	-453.657181	931.738831	1230.300049	-449.683838	1187.380737	1248.820435	-482.502930	958.381409	617.384277	-261.216370	964.302490	477.585663	-330.385773	860.303833	294.457520	-278.761261	780.698792	94.627411	-357.511902	713.754211	80.667854	-416.812561	911.939331	42.366989	-370.769470	1167.141602	670.808105	-677.101074	1247.637085	521.285645	-624.430542	1256.414185	361.788361	-692.321350	1338.899414	91.904961	-637.814514	1271.927734	63.486034	-593.567993	1478.534912	86.329277	-597.640442
246	2.45000000	1098.159790	1450.392944	-297.569397	1017.590942	1423.743408	-660.584106	1015.514954	1494.596680	-469.276520	1172.220581	1394.271484	-489.905487	1259.000854	1154.583740	-169.998138	865.444153	1125.061890	-718.259460	1463.763611	977.245636	-221.857025	868.342377	850.079437	-687.660553	1114.239868	989.283875	-307.890076	1120.508301	995.531128	-596.751587	926.475098	998.308838	-405.663788	930.847656	992.498291	-506.993866	928.661377	995.403564	-456.328827	941.671814	1229.439453	-452.259216	1197.096191	1249.335938	-484.236115	966.613220	617.581299	-261.917542	971.739258	477.416473	-330.492676	864.945923	295.960876	-278.419647	782.025574	97.184883	-356.598907	714.677429	84.556686	-415.625214	912.108337	42.334278	-370.362122	1176.163330	669.230957	-677.807312	1253.445435	518.211243	-624.562073	1260.704834	358.234406	-691.983521	1341.367676	88.374290	-637.239868	1273.689941	61.525959	-593.186401	1480.691650	78.769646	-596.653748
247	2.46000000	1106.053711	1451.349243	-300.088257	1026.737061	1423.228882	-663.013611	1024.247192	1494.591187	-471.852539	1181.372681	1394.916870	-492.085236	1266.258301	1155.133179	-171.675125	876.086731	1123.536011	-719.923218	1470.205200	976.805389	-223.200714	879.530457	848.553955	-688.781128	1124.652588	989.010803	-309.967896	1131.828003	995.206909	-598.503784	936.980957	998.283752	-408.229950	941.805969	992.631836	-509.657806	939.393463	995.457794	-458.943878	951.754089	1228.864868	-454.864197	1206.946655	1250.084229	-486.025757	975.345947	617.849426	-262.696075	979.687561	477.369141	-330.550629	869.969971	297.683838	-278.008484	783.585571	100.092720	-355.545197	715.831177	88.920776	-414.305847	912.381836	42.324009	-369.964874	1184.312988	667.696655	-678.649353	1258.856201	515.444519	-624.752380	1264.572632	354.969147	-691.658936	1343.748535	85.331535	-636.728027	1275.436890	60.148918	-592.738525	1482.860840	71.501579	-596.209900
248	2.47000000	1114.140259	1452.552612	-302.646423	1036.136841	1422.970093	-665.531250	1033.147705	1494.842651	-474.502960	1190.677856	1395.791260	-494.293671	1273.251953	1155.676758	-173.359711	887.311707	1122.089722	-721.824585	1476.113892	976.060089	-224.467102	891.434937	847.125031	-690.165741	1135.372070	988.974182	-312.279968	1143.003174	995.258850	-600.430542	947.538391	998.566223	-410.708221	952.743713	993.106567	-512.257080	950.141052	995.836395	-461.482651	961.961304	1228.598633	-457.489807	1216.915283	1251.059814	-487.871796	984.581177	618.234741	-263.567780	988.245422	477.443390	-330.518494	875.413330	299.661133	-277.519684	785.435791	103.386559	-354.374786	717.312683	93.817596	-412.904083	912.794983	42.331924	-369.601044	1191.653687	666.294128	-679.647949	1263.946777	513.077271	-625.005920	1268.230591	352.134186	-691.396362	1346.098633	82.847580	-636.277832	1277.222046	59.344643	-592.260559	1485.097656	64.792114	-596.218384
249	2.48000000	1122.431274	1453.991455	-305.238525	1045.784302	1422.979614	-668.129578	1042.212891	1495.350220	-477.219269	1200.126465	1396.885742	-496.524536	1279.986084	1156.208984	-175.063477	899.109985	1120.748291	-723.964661	1481.489441	975.006866	-225.660316	904.071228	845.821320	-691.810913	1146.332275	989.195862	-314.804596	1153.995239	995.709900	-602.528931	958.117188	999.157166	-413.087372	963.621765	993.922729	-514.772217	960.869476	996.539948	-463.929794	972.265076	1228.657104	-460.126984	1226.983154	1252.251953	-489.772217	994.299194	618.777954	-264.525940	997.513855	477.638489	-330.348358	881.310059	301.937775	-276.949249	787.651306	107.104149	-353.125183	719.245972	99.307480	-411.485107	913.377625	42.342907	-369.292389	1198.320679	665.121948	-680.809875	1268.781616	511.175323	-625.331299	1271.853638	349.833679	-691.243774	1348.402710	80.943375	-635.886536	1279.033325	59.043335	-591.785217	1487.374268	58.882633	-596.557983
250	2.49000000	1130.932739	1455.648560	-307.858612	1055.669922	1423.264404	-670.799500	1051.436523	1496.106812	-479.991730	1209.707275	1398.186157	-498.770477	1286.464722	1156.723389	-176.798126	911.468018	1119.533936	-726.342590	1486.334106	973.645355	-226.785606	917.451538	844.669281	-693.711121	1157.456177	989.694580	-317.512909	1164.773804	996.570068	-604.790588	968.687927	1000.050598	-415.362396	974.402649	995.072815	-517.188354	971.545288	997.561707	-466.275375	982.634094	1229.049683	-462.766968	1237.130249	1253.644775	-491.723083	1004.457031	619.501465	-265.544067	1007.594055	477.952972	-329.988525	887.697571	304.563873	-276.298523	790.325867	111.282471	-351.844025	721.780273	105.450439	-410.123810	914.148376	42.333847	-369.055603	1204.502930	664.274841	-682.125366	1273.401245	509.771820	-625.738708	1275.549683	348.121613	-691.240295	1350.589355	79.593521	-635.553894	1280.808838	59.131592	-591.340454	1489.601807	53.953983	-597.094604
